# xmcd
#
# Track frame offsets:
#	150
#	18398
#	34177
#
# Disc length: 710 seconds
#
# Revision: 1
# Processed by: cddbd v1.5.2PL0 Copyright (c) Steve Scherf et al.
# Submitted via: EasyCDDAExtractor 12.0.4.1
#
DISCID=1b02c403
DTITLE=dragon5 - complimentary
DYEAR=2005
DGENRE=Acapella
TTITLE0=NON-STOP
TTITLE1=เอาแต่ใจ
TTITLE2=หยุดหลอกตัวเองซะที
EXTD=YEAR: 2005
EXTT0=
EXTT1=
EXTT2=
PLAYORDER=
